<svg width="115" height="9" viewBox="0 0 115 9" fill="none" xmlns="http://www.w3.org/2000/svg">
    <path d="M0 9V0.74H0.42V9H0ZM1.26 9V0.74H2.1V9H1.26ZM3.78 9V0.74H4.2V9H3.78ZM4.62109 9V0.74H5.04109V9H4.62109ZM5.88109 9V0.74H7.56109V9H5.88109ZM7.98109 9V0.74H8.40109V9H7.98109ZM9.24219 9V0.74H9.66219V9H9.24219ZM10.5022 9V0.74H12.1822V9H10.5022ZM12.6022 9V0.74H13.0222V9H12.6022ZM13.8633 9V0.74H14.2833V9H13.8633ZM14.7033 9V0.74H15.1233V9H14.7033ZM15.9633 9V0.74H17.6433V9H15.9633ZM18.4844 9V0.74H18.9044V9H18.4844ZM19.3244 9V0.74H21.0044V9H19.3244ZM21.8444 9V0.74H22.2644V9H21.8444ZM23.1055 9V0.74H24.3655V9H23.1055ZM25.2055 9V0.74H25.6255V9H25.2055ZM26.4655 9V0.74H27.3055V9H26.4655ZM27.7266 9V0.74H28.1466V9H27.7266ZM28.5666 9V0.74H29.8266V9H28.5666ZM30.6666 9V0.74H31.5066V9H30.6666ZM32.3477 9V0.74H32.7677V9H32.3477ZM33.1877 9V0.74H34.4477V9H33.1877ZM35.2877 9V0.74H36.1277V9H35.2877ZM36.9688 9V0.74H37.3888V9H36.9688ZM38.2288 9V0.74H39.0688V9H38.2288ZM39.4888 9V0.74H39.9088V9H39.4888ZM41.5898 9V0.74H42.0098V9H41.5898ZM43.6898 9V0.74H44.5298V9H43.6898ZM44.9498 9V0.74H45.3698V9H44.9498ZM46.2109 9V0.74H46.6309V9H46.2109ZM47.4709 9V0.74H49.1509V9H47.4709ZM49.5709 9V0.74H49.9909V9H49.5709ZM50.832 9V0.74H51.252V9H50.832ZM52.092 9V0.74H52.932V9H52.092ZM54.612 9V0.74H55.032V9H54.612ZM55.4531 9V0.74H55.8731V9H55.4531ZM56.7131 9V0.74H58.3931V9H56.7131ZM59.2331 9V0.74H59.6531V9H59.2331ZM60.0742 9V0.74H60.4942V9H60.0742ZM61.3342 9V0.74H61.7542V9H61.3342ZM63.4342 9V0.74H64.2742V9H63.4342ZM64.6953 9V0.74H65.1153V9H64.6953ZM65.9553 9V0.74H66.7953V9H65.9553ZM67.6353 9V0.74H68.8953V9H67.6353ZM69.3164 9V0.74H69.7364V9H69.3164ZM71.4164 9V0.74H71.8364V9H71.4164ZM72.2564 9V0.74H73.0964V9H72.2564ZM73.9375 9V0.74H74.3575V9H73.9375ZM75.6175 9V0.74H77.2975V9H75.6175ZM77.7175 9V0.74H78.1375V9H77.7175ZM78.5586 9V0.74H80.2386V9H78.5586ZM80.6586 9V0.74H81.9186V9H80.6586ZM82.3386 9V0.74H82.7586V9H82.3386ZM83.1797 9V0.74H83.5997V9H83.1797ZM84.0197 9V0.74H85.2797V9H84.0197ZM86.1197 9V0.74H86.9597V9H86.1197ZM87.8008 9V0.74H88.6408V9H87.8008ZM89.0608 9V0.74H89.9008V9H89.0608ZM90.3208 9V0.74H92.0008V9H90.3208ZM92.4219 9V0.74H92.8419V9H92.4219ZM93.6819 9V0.74H95.3619V9H93.6819ZM96.2019 9V0.74H96.6219V9H96.2019ZM97.043 9V0.74H97.463V9H97.043ZM98.303 9V0.74H99.983V9H98.303ZM100.823 9V0.74H101.243V9H100.823ZM101.664 9V0.74H102.084V9H101.664ZM102.924 9V0.74H103.344V9H102.924ZM103.764 9V0.74H104.604V9H103.764ZM106.285 9V0.74H106.705V9H106.285ZM107.545 9V0.74H108.385V9H107.545ZM110.065 9V0.74H110.485V9H110.065ZM110.906 9V0.74H111.326V9H110.906ZM111.746 9V0.74H112.166V9H111.746ZM113.006 9V0.74H114.686V9H113.006Z" fill="black"/>
</svg>
