<?xml version="1.0" encoding="UTF-8" standalone="no"?>
<!DOCTYPE svg PUBLIC "-//W3C//DTD SVG 1.1//EN" "http://www.w3.org/Graphics/SVG/1.1/DTD/svg11.dtd">
<svg width="100%" height="100%" viewBox="0 0 1527 869" version="1.1" xmlns="http://www.w3.org/2000/svg" xmlns:xlink="http://www.w3.org/1999/xlink" xml:space="preserve" xmlns:serif="http://www.serif.com/" style="fill-rule:evenodd;clip-rule:evenodd;stroke-linejoin:round;stroke-miterlimit:2;">
    <g transform="matrix(1,0,0,1,-473.151,-251.111)">
        <g transform="matrix(7.40219,0,0,7.40219,474.45,252.411)">
            <g transform="matrix(1,0,0,1,71.8044,3.2599)">
                <path d="M0,113.947C-3.327,113.931 -6.248,112.373 -8.02,109.675C-9.485,107.443 -10.058,104.676 -9.732,101.418L-40.538,101.396L-41.123,102.449C-42.481,104.908 -45.087,106.496 -47.757,106.489C-50.422,106.483 -52.796,104.889 -53.81,102.427L-54.743,100.185L-56.837,99.059C-59.153,97.818 -60.48,95.315 -60.298,92.523C-60.116,89.733 -58.458,87.212 -55.965,85.944L-53.714,84.801L-52.465,82.519C-51.108,80.014 -48.562,78.437 -45.825,78.418C-45.303,78.414 -44.789,78.469 -44.291,78.58L-32.51,67.099L-40.318,67.185C-42.603,67.21 -44.685,66.31 -46.184,64.652L-47.167,63.56L-48.296,64.672C-50.019,66.368 -52.217,67.315 -54.485,67.34L-61.518,67.417C-66.167,67.467 -69.692,63.551 -69.388,58.676C-69.083,53.787 -65.045,49.737 -60.372,49.658L-56.832,49.597L-51.928,44.702C-50.199,42.976 -47.985,42 -45.692,41.955C-43.396,41.91 -41.3,42.805 -39.791,44.475L-35.492,49.234L-35.145,49.228C-35.141,49.113 -35.134,48.998 -35.126,48.882C-34.961,46.563 -34.071,44.28 -32.626,42.393C-32.795,41.364 -32.785,40.295 -32.591,39.233L-31.253,31.846C-33.926,29.593 -34.83,25.709 -33.493,22.046L-27.964,6.796C-26.537,2.87 -22.971,0.141 -19.084,0.01C-18.679,-0.003 -18.273,0.012 -17.878,0.055C-13.592,0.548 -10.669,4.222 -10.923,8.784L-11.367,16.775L-11.049,17.018C-7.881,19.427 -6.989,23.924 -8.88,27.937L-15.621,42.161C-14.468,43.99 -13.94,46.192 -14.119,48.522C-14.127,48.639 -14.138,48.755 -14.15,48.871L15.602,48.365L23.546,40.747C24.691,39.653 26.024,38.85 27.459,38.386C27.687,38.114 27.929,37.855 28.183,37.609L44.686,21.795C46.433,20.122 48.645,19.166 50.914,19.105C53.187,19.045 55.242,19.892 56.698,21.49L69.384,35.412C69.841,35.912 70.226,36.478 70.529,37.093L86.283,36.771C89.875,36.698 92.904,38.663 94.16,41.826L100.525,41.707L101.188,35.45C101.7,30.622 106.058,26.592 110.914,26.478C114.506,26.393 117.374,28.473 118.416,31.522C119.459,31.118 120.557,30.894 121.664,30.87C124.037,30.817 126.168,31.687 127.661,33.318C129.154,34.949 129.828,37.145 129.561,39.5C129.436,40.599 129.114,41.67 128.615,42.671C131.567,43.987 133.388,47.033 132.978,50.603C132.424,55.432 127.998,59.404 123.124,59.466L113.727,59.587C113.185,59.594 112.655,59.552 112.139,59.46L110.034,61.365L132.184,85.643C134.622,88.301 134.974,92.29 133.079,95.79C131.193,99.273 127.485,101.516 123.636,101.513L58.138,101.467L50.062,108.8C48.242,110.463 45.833,111.415 43.46,111.405C42.295,111.401 41.174,111.172 40.128,110.726C36.875,109.314 34.998,106.058 35.327,102.417L35.42,101.397C35.097,101.432 34.774,101.45 34.452,101.45L16.055,101.437C15.648,102.17 15.229,102.877 14.8,103.55L14.614,103.879L14.467,104.065L14.179,104.508L14.12,104.566C10.563,109.77 6.262,113.03 1.982,113.776C1.334,113.892 0.662,113.95 0,113.947" style="fill:rgb(163,161,161);fill-rule:nonzero;"/>
            </g>
        </g>
        <g transform="matrix(7.40219,0,0,7.40219,474.45,252.411)">
            <g transform="matrix(1,0,0,1,69.9064,0.4943)">
                <path d="M0,113.947C-3.327,113.931 -6.248,112.373 -8.02,109.675C-9.485,107.443 -10.058,104.676 -9.732,101.418L-40.538,101.396L-41.123,102.449C-42.481,104.908 -45.087,106.496 -47.757,106.489C-50.422,106.483 -52.796,104.889 -53.81,102.427L-54.743,100.185L-56.837,99.059C-59.153,97.818 -60.48,95.315 -60.298,92.523C-60.116,89.733 -58.458,87.212 -55.965,85.944L-53.714,84.801L-52.465,82.519C-51.108,80.014 -48.562,78.437 -45.825,78.418C-45.303,78.414 -44.789,78.469 -44.291,78.58L-32.51,67.099L-40.318,67.185C-42.603,67.21 -44.685,66.31 -46.184,64.652L-47.167,63.56L-48.296,64.672C-50.019,66.368 -52.217,67.315 -54.485,67.34L-61.518,67.417C-66.167,67.467 -69.692,63.551 -69.388,58.676C-69.083,53.787 -65.045,49.737 -60.372,49.658L-56.832,49.597L-51.928,44.702C-50.199,42.976 -47.985,42 -45.692,41.955C-43.396,41.91 -41.3,42.805 -39.791,44.475L-35.492,49.234L-35.145,49.228C-35.141,49.113 -35.134,48.998 -35.126,48.882C-34.961,46.563 -34.071,44.28 -32.626,42.393C-32.795,41.364 -32.785,40.295 -32.591,39.233L-31.253,31.846C-33.926,29.593 -34.83,25.709 -33.493,22.046L-27.964,6.796C-26.537,2.87 -22.971,0.141 -19.084,0.01C-18.679,-0.003 -18.273,0.012 -17.878,0.055C-13.592,0.548 -10.669,4.222 -10.923,8.784L-11.367,16.775L-11.049,17.018C-7.881,19.427 -6.989,23.924 -8.88,27.937L-15.621,42.161C-14.468,43.99 -13.94,46.192 -14.119,48.522C-14.127,48.639 -14.138,48.755 -14.15,48.871L15.602,48.365L23.546,40.747C24.691,39.653 26.024,38.85 27.459,38.386C27.687,38.114 27.929,37.855 28.183,37.609L44.686,21.795C46.433,20.122 48.645,19.166 50.914,19.105C53.187,19.045 55.242,19.892 56.698,21.49L69.384,35.412C69.841,35.912 70.226,36.478 70.529,37.093L86.283,36.771C89.875,36.698 92.904,38.663 94.16,41.826L100.525,41.707L101.188,35.45C101.7,30.622 106.058,26.592 110.914,26.478C114.506,26.393 117.374,28.473 118.416,31.522C119.459,31.118 120.557,30.894 121.664,30.87C124.037,30.817 126.168,31.687 127.661,33.318C129.154,34.949 129.828,37.145 129.561,39.5C129.436,40.599 129.114,41.67 128.615,42.671C131.567,43.987 133.388,47.033 132.978,50.603C132.424,55.432 127.998,59.404 123.124,59.466L113.727,59.587C113.185,59.594 112.655,59.552 112.139,59.46L110.034,61.365L132.184,85.643C134.622,88.301 134.974,92.29 133.079,95.79C131.193,99.273 127.485,101.516 123.636,101.513L58.138,101.467L50.062,108.8C48.242,110.464 45.833,111.415 43.46,111.405C42.295,111.401 41.174,111.172 40.128,110.726C36.875,109.314 34.998,106.058 35.327,102.417L35.42,101.397C35.097,101.432 34.774,101.45 34.452,101.45L16.055,101.437C15.648,102.17 15.229,102.877 14.8,103.55L14.614,103.879L14.467,104.065L14.179,104.508L14.12,104.566C10.563,109.77 6.262,113.03 1.982,113.776C1.334,113.892 0.662,113.95 0,113.947" style="fill:white;fill-rule:nonzero;"/>
            </g>
        </g>
        <g transform="matrix(7.40219,0,0,7.40219,474.45,252.411)">
            <g transform="matrix(1,0,0,1,69.9064,0.4943)">
                <path d="M-35.709,47.986C-35.414,45.927 -34.588,43.926 -33.335,42.214C-33.471,41.199 -33.446,40.152 -33.256,39.113C-33.256,39.113 -31.985,32.1 -31.985,32.1C-34.634,29.642 -35.517,25.62 -34.128,21.816L-28.599,6.566L-28.599,6.565C-27.075,2.374 -23.257,-0.525 -19.107,-0.665L-19.106,-0.665C-18.669,-0.679 -18.231,-0.663 -17.805,-0.617C-17.804,-0.616 -17.802,-0.616 -17.801,-0.616C-13.159,-0.082 -9.973,3.881 -10.249,8.821C-10.249,8.821 -10.673,16.455 -10.673,16.455C-10.673,16.455 -10.641,16.479 -10.64,16.48C-7.23,19.073 -6.234,23.906 -8.269,28.225L-8.27,28.226C-8.27,28.226 -14.855,42.122 -14.855,42.122C-13.823,43.899 -13.322,45.981 -13.422,48.183L15.326,47.694L23.078,40.259L23.079,40.259C24.251,39.139 25.608,38.307 27.067,37.805C27.273,37.568 27.489,37.341 27.713,37.124C27.714,37.123 27.715,37.122 27.716,37.121L44.219,21.307C46.091,19.514 48.464,18.495 50.896,18.43L50.896,18.43C53.373,18.364 55.61,19.294 57.197,21.035L69.883,34.956C70.285,35.397 70.637,35.884 70.932,36.409L86.269,36.096C89.99,36.02 93.146,37.974 94.602,41.142L99.916,41.043L100.516,35.379C101.063,30.225 105.715,25.924 110.898,25.803C114.553,25.716 117.512,27.699 118.809,30.669C119.732,30.377 120.687,30.216 121.649,30.195C124.227,30.137 126.538,31.09 128.159,32.862C129.781,34.634 130.522,37.017 130.232,39.576L130.232,39.576C130.124,40.531 129.876,41.466 129.502,42.357C132.352,43.92 134.066,47.048 133.649,50.68C133.058,55.834 128.335,60.075 123.133,60.141L113.736,60.262C113.266,60.268 112.805,60.24 112.353,60.178L110.99,61.411C110.99,61.411 132.683,85.188 132.683,85.188C135.307,88.05 135.713,92.343 133.673,96.112C131.669,99.813 127.726,102.192 123.636,102.188L58.399,102.143L50.517,109.3C48.571,111.078 45.994,112.091 43.457,112.08C42.201,112.076 40.991,111.828 39.863,111.347C39.862,111.347 39.86,111.346 39.859,111.346C36.338,109.817 34.298,106.297 34.654,102.356L34.654,102.356C34.654,102.356 34.676,102.123 34.676,102.123C34.601,102.125 34.526,102.125 34.452,102.125L34.452,102.125C34.452,102.125 16.45,102.113 16.45,102.113C16.101,102.729 15.744,103.325 15.379,103.898L15.202,104.211C15.185,104.242 15.165,104.271 15.144,104.298L15.016,104.459L14.745,104.876C14.719,104.917 14.687,104.955 14.653,104.99C14.653,104.99 14.641,105.001 14.64,105.002C10.969,110.352 6.511,113.672 2.1,114.441C1.412,114.564 0.699,114.626 -0.003,114.622C-3.564,114.605 -6.688,112.933 -8.585,110.046C-10.015,107.866 -10.652,105.204 -10.464,102.093L-40.141,102.072C-40.141,102.072 -40.532,102.777 -40.532,102.777C-42.011,105.453 -44.853,107.172 -47.759,107.164C-50.697,107.158 -53.315,105.4 -54.434,102.686L-55.274,100.666L-57.156,99.654C-59.701,98.291 -61.172,95.547 -60.972,92.479C-60.775,89.452 -58.976,86.718 -56.271,85.342L-56.271,85.342C-56.271,85.342 -54.206,84.293 -54.206,84.293C-54.206,84.293 -53.058,82.196 -53.058,82.196C-51.581,79.471 -48.807,77.763 -45.83,77.743C-45.383,77.739 -44.941,77.775 -44.509,77.849C-44.509,77.849 -34.19,67.793 -34.19,67.793L-40.311,67.86C-42.794,67.888 -45.056,66.907 -46.685,65.105L-47.196,64.537L-47.822,65.153C-49.674,66.977 -52.04,67.989 -54.478,68.015L-61.511,68.092C-66.551,68.147 -70.392,63.919 -70.062,58.634C-69.735,53.394 -65.392,49.067 -60.384,48.983L-57.116,48.926L-52.405,44.224C-50.548,42.37 -48.168,41.328 -45.705,41.28C-43.209,41.231 -40.931,42.206 -39.29,44.022L-35.709,47.986ZM0.003,113.272C0.624,113.274 1.255,113.22 1.863,113.111C1.864,113.111 1.865,113.111 1.866,113.111C5.999,112.39 10.128,109.21 13.562,104.185C13.587,104.149 13.615,104.115 13.646,104.084L13.653,104.078L13.901,103.697C13.912,103.679 13.924,103.662 13.937,103.646L14.052,103.501L14.212,103.218C14.218,103.207 14.224,103.197 14.23,103.187C14.652,102.525 15.064,101.83 15.464,101.109C15.584,100.894 15.81,100.761 16.055,100.762L34.452,100.775C34.75,100.775 35.049,100.758 35.347,100.725C35.549,100.704 35.749,100.773 35.894,100.915C36.038,101.057 36.111,101.257 36.093,101.458L36,102.478C35.698,105.818 37.411,108.809 40.395,110.105C41.358,110.516 42.39,110.726 43.462,110.73L43.463,110.73C45.671,110.739 47.912,109.85 49.606,108.301L49.608,108.3L57.684,100.967C57.808,100.854 57.97,100.791 58.138,100.792L123.637,100.838C127.244,100.84 130.717,98.733 132.485,95.468C134.234,92.238 133.937,88.553 131.686,86.1L131.685,86.098L109.535,61.82C109.414,61.688 109.351,61.512 109.359,61.333C109.368,61.153 109.448,60.985 109.581,60.864L111.686,58.959C111.841,58.819 112.052,58.758 112.258,58.795C112.732,58.88 113.22,58.918 113.718,58.912L123.115,58.791C127.661,58.733 131.79,55.03 132.307,50.526C132.681,47.271 131.031,44.488 128.34,43.288C128.172,43.213 128.041,43.072 127.979,42.899C127.917,42.726 127.928,42.534 128.01,42.37C128.474,41.44 128.774,40.445 128.89,39.424C129.134,37.273 128.527,35.264 127.163,33.774C125.798,32.284 123.848,31.497 121.679,31.545L121.679,31.545C120.65,31.568 119.629,31.776 118.66,32.152C118.489,32.218 118.297,32.212 118.131,32.134C117.964,32.057 117.836,31.914 117.777,31.74C116.827,28.961 114.205,27.076 110.93,27.153C106.401,27.26 102.337,31.019 101.86,35.521L101.197,41.778C101.161,42.117 100.878,42.376 100.538,42.382L94.173,42.501C93.891,42.507 93.636,42.337 93.532,42.075C92.38,39.173 89.593,37.379 86.297,37.446L70.543,37.768C70.281,37.774 70.039,37.627 69.923,37.392C69.648,36.834 69.3,36.321 68.885,35.868L68.885,35.867L56.199,21.945C54.874,20.491 53.001,19.726 50.932,19.78C48.826,19.837 46.775,20.73 45.153,22.283L28.652,38.095C28.415,38.325 28.189,38.566 27.977,38.82C27.895,38.917 27.788,38.99 27.667,39.029C26.327,39.462 25.082,40.213 24.013,41.235L16.07,48.853C15.947,48.97 15.784,49.037 15.613,49.04L-14.139,49.546C-14.332,49.55 -14.517,49.47 -14.648,49.328C-14.778,49.185 -14.842,48.994 -14.822,48.801C-14.811,48.693 -14.8,48.585 -14.793,48.476C-14.793,48.474 -14.793,48.472 -14.792,48.47C-14.625,46.292 -15.114,44.231 -16.192,42.521C-16.316,42.326 -16.33,42.081 -16.231,41.872L-9.491,27.649C-7.744,23.942 -8.532,19.781 -11.458,17.556L-11.777,17.312C-11.955,17.176 -12.054,16.961 -12.041,16.738L-11.597,8.746C-11.365,4.564 -14.024,1.179 -17.953,0.726C-18.316,0.687 -18.69,0.673 -19.062,0.685C-22.686,0.807 -25.999,3.366 -27.329,7.027L-32.858,22.276L-32.858,22.278C-34.093,25.659 -33.285,29.25 -30.818,31.33C-30.633,31.485 -30.545,31.728 -30.588,31.966L-31.926,39.353L-31.927,39.354C-32.106,40.339 -32.116,41.33 -31.959,42.284C-31.929,42.467 -31.976,42.656 -32.09,42.804C-33.454,44.585 -34.296,46.74 -34.452,48.929C-34.46,49.037 -34.466,49.144 -34.47,49.251C-34.482,49.611 -34.774,49.897 -35.133,49.903L-35.48,49.909C-35.675,49.913 -35.862,49.832 -35.993,49.687L-40.292,44.928C-41.669,43.404 -43.583,42.589 -45.679,42.63C-47.802,42.672 -49.85,43.582 -51.451,45.18L-56.355,50.075C-56.479,50.199 -56.645,50.269 -56.82,50.272L-60.361,50.333C-64.698,50.407 -68.431,54.18 -68.714,58.718C-68.992,63.183 -65.783,66.787 -61.525,66.742L-54.492,66.665C-52.394,66.641 -50.364,65.76 -48.77,64.191L-47.641,63.079C-47.51,62.949 -47.331,62.879 -47.147,62.885C-46.962,62.89 -46.788,62.971 -46.665,63.108L-45.683,64.199C-44.314,65.713 -42.412,66.532 -40.325,66.51L-32.517,66.424C-32.241,66.421 -31.991,66.586 -31.886,66.841C-31.78,67.096 -31.841,67.39 -32.039,67.583L-43.82,79.064C-43.983,79.223 -44.215,79.289 -44.438,79.239C-44.887,79.139 -45.35,79.09 -45.82,79.093L-45.82,79.093C-48.316,79.111 -50.634,80.556 -51.871,82.841C-51.872,82.842 -51.872,82.842 -51.872,82.843L-53.121,85.125C-53.187,85.245 -53.287,85.342 -53.408,85.403L-55.659,86.546C-57.94,87.707 -59.457,90.014 -59.624,92.567C-59.788,95.083 -58.605,97.345 -56.518,98.464L-54.423,99.59C-54.286,99.664 -54.179,99.782 -54.119,99.925L-53.186,102.167C-53.186,102.168 -53.186,102.169 -53.185,102.17C-52.276,104.378 -50.146,105.808 -47.755,105.814L-47.755,105.814C-45.322,105.82 -42.952,104.364 -41.714,102.122L-41.713,102.121L-41.128,101.068C-41.009,100.853 -40.783,100.72 -40.538,100.721L-9.732,100.743C-9.541,100.743 -9.359,100.823 -9.231,100.965C-9.103,101.106 -9.041,101.295 -9.06,101.485C-9.368,104.569 -8.842,107.192 -7.455,109.304C-5.808,111.813 -3.09,113.257 0.003,113.272Z" style="fill:rgb(163,161,161);"/>
            </g>
        </g>
        <g transform="matrix(7.40219,0,0,7.40219,474.45,252.411)">
            <g transform="matrix(1,0,0,1,56.5705,45.294)">
                <path d="M0,44.897C-0.513,44.899 -1.009,44.7 -1.369,44.301L-14.627,29.606C-15.346,28.809 -15.25,27.507 -14.414,26.696C-13.576,25.885 -12.314,25.872 -11.594,26.67L0.384,39.941L41.346,0.866C42.231,0.022 43.55,-0.002 44.291,0.814C45.032,1.63 44.913,2.976 44.026,3.819L1.464,44.292C1.041,44.693 0.513,44.895 0,44.897" style="fill:rgb(67,65,62);fill-rule:nonzero;"/>
            </g>
        </g>
        <g transform="matrix(7.40219,0,0,7.40219,474.45,252.411)">
            <g transform="matrix(1,0,0,1,99.325,95.0109)">
                <path d="M0,-24.594L-1.991,-2.045C-2.092,-0.9 -3.095,0.031 -4.228,0.032C-5.361,0.034 -6.199,-0.892 -6.099,-2.036L-4.336,-22.259C-2.863,-23.124 -1.405,-23.912 0,-24.628C0.002,-24.616 0.001,-24.605 0,-24.594" style="fill:rgb(67,65,62);fill-rule:nonzero;"/>
            </g>
        </g>
        <g transform="matrix(7.40219,0,0,7.40219,474.45,252.411)">
            <g transform="matrix(1,0,0,1,121.36,44.4887)">
                <path d="M0,35.415C-0.536,35.419 -1.053,35.216 -1.424,34.808C-2.165,33.992 -2.04,32.658 -1.144,31.828L28.446,4.426L13.068,4.682C11.892,4.702 11.032,3.757 11.147,2.571C11.261,1.385 12.307,0.405 13.484,0.384L34.09,0.012C34.964,-0.004 35.699,0.51 35.95,1.314C36.202,2.117 35.921,3.051 35.24,3.681L1.542,34.788C1.093,35.202 0.536,35.411 0,35.415" style="fill:rgb(67,65,62);fill-rule:nonzero;"/>
            </g>
        </g>
        <g transform="matrix(7.40219,0,0,7.40219,474.45,252.411)">
            <g transform="matrix(1,0,0,1,154.737,87.7775)">
                <path d="M0,-15.339L-1.575,-0.018C-1.695,1.152 -2.749,2.104 -3.926,2.108L-9.036,2.124C-10.208,2.128 -11.064,1.185 -10.947,0.019C-10.83,-1.147 -9.783,-2.099 -8.609,-2.105L-5.627,-2.118L-4.287,-15.301C-4.167,-16.479 -3.11,-17.445 -1.926,-17.456C-0.742,-17.467 0.121,-16.519 0,-15.339" style="fill:rgb(67,65,62);fill-rule:nonzero;"/>
            </g>
        </g>
        <g transform="matrix(7.40219,0,0,7.40219,474.45,252.411)">
            <g transform="matrix(1,0,0,1,149.827,84.0914)">
                <path d="M0,-5.48L-0.455,-1.002L-13.366,3.206C-13.593,3.28 -13.822,3.315 -14.044,3.315C-14.759,3.318 -15.41,2.956 -15.743,2.325C-16.176,1.496 -15.945,0.418 -15.184,-0.278L-6.797,-7.951C-5.882,-8.787 -4.535,-8.798 -3.786,-7.974C-3.036,-7.15 -3.172,-5.803 -4.088,-4.968L-5.503,-3.678L0,-5.48Z" style="fill:rgb(67,65,62);fill-rule:nonzero;"/>
            </g>
        </g>
        <g transform="matrix(7.40219,0,0,7.40219,474.45,252.411)">
            <g transform="matrix(1,0,0,1,168.103,76.0744)">
                <path d="M0,10.579C-0.931,11.412 -2.293,11.417 -3.047,10.592L-9.146,3.889L-14.312,5.572L-13.851,1.087L-8.779,-0.575C-7.98,-0.838 -7.148,-0.645 -6.631,-0.077L0.322,7.562C1.077,8.391 0.932,9.742 0,10.579" style="fill:rgb(67,65,62);fill-rule:nonzero;"/>
            </g>
        </g>
        <g transform="matrix(7.40219,0,0,7.40219,474.45,252.411)">
            <g transform="matrix(1,0,0,1,152.374,70.447)">
                <path d="M0,4.145L-15.345,4.271C-16.516,4.281 -17.371,3.339 -17.257,2.167C-17.142,0.994 -16.1,0.034 -14.928,0.023L0.437,-0.125C1.622,-0.136 2.484,0.812 2.363,1.992C2.242,3.172 1.184,4.135 0,4.145" style="fill:rgb(67,65,62);fill-rule:nonzero;"/>
            </g>
        </g>
        <g transform="matrix(7.40219,0,0,7.40219,474.45,252.411)">
            <g transform="matrix(1,0,0,1,160.909,62.6819)">
                <path d="M0,4.134L-15.457,4.3C-16.637,4.313 -17.497,3.367 -17.379,2.188C-17.261,1.007 -16.21,0.038 -15.029,0.024L0.448,-0.164C1.642,-0.179 2.509,0.773 2.385,1.961C2.26,3.149 1.192,4.121 0,4.134" style="fill:rgb(67,65,62);fill-rule:nonzero;"/>
            </g>
        </g>
        <g transform="matrix(7.40219,0,0,7.40219,474.45,252.411)">
            <g transform="matrix(1,0,0,1,178.699,34.2973)">
                <path d="M0,12.263C-0.807,12.277 -1.391,11.638 -1.304,10.835L-0.296,1.496C-0.209,0.689 0.518,0.02 1.328,0.003C2.138,-0.014 2.724,0.627 2.637,1.435L1.621,10.783C1.533,11.587 0.808,12.249 0,12.263" style="fill:rgb(163,161,161);fill-rule:nonzero;"/>
            </g>
        </g>
        <g transform="matrix(7.40219,0,0,7.40219,474.45,252.411)">
            <g transform="matrix(1,0,0,1,193.847,49.9205)">
                <path d="M0,2.773L-9.417,2.916C-10.226,2.928 -10.81,2.289 -10.722,1.487C-10.634,0.684 -9.907,0.023 -9.097,0.01L0.328,-0.142C1.143,-0.155 1.73,0.488 1.639,1.293C1.548,2.098 0.814,2.761 0,2.773" style="fill:rgb(163,161,161);fill-rule:nonzero;"/>
            </g>
        </g>
        <g transform="matrix(7.40219,0,0,7.40219,474.45,252.411)">
            <g transform="matrix(1,0,0,1,185.133,38.5543)">
                <path d="M0,7.895C-0.376,7.901 -0.736,7.766 -0.991,7.486C-1.501,6.928 -1.4,6.005 -0.765,5.426L4.532,0.596C5.171,0.013 6.106,-0.006 6.618,0.555C7.131,1.116 7.028,2.043 6.387,2.626L1.085,7.45C0.767,7.74 0.376,7.889 0,7.895" style="fill:rgb(163,161,161);fill-rule:nonzero;"/>
            </g>
        </g>
        <g transform="matrix(7.40219,0,0,7.40219,474.45,252.411)">
            <g transform="matrix(-0.0171733,-0.999853,-0.999853,0.0171733,45.1302,45.3811)">
                <path d="M-3.818,-3.87C-6.001,-3.669 -7.772,-1.794 -7.769,0.309C-7.766,2.409 -5.995,3.955 -3.818,3.758C-1.638,3.562 0.138,1.693 0.141,-0.411C0.144,-2.519 -1.632,-4.072 -3.818,-3.87" style="fill:rgb(67,65,62);fill-rule:nonzero;"/>
            </g>
        </g>
        <g transform="matrix(7.40219,0,0,7.40219,474.45,252.411)">
            <g transform="matrix(1,0,0,1,54.966,24.3295)">
                <path d="M0,1.554L-7.292,17.036C-7.668,17.838 -8.448,18.346 -9.244,18.362C-9.411,18.365 -9.581,18.346 -9.746,18.302C-10.697,18.059 -11.261,17.106 -11.07,16.069L-8.962,4.557L-11.719,2.446C-12.387,1.936 -12.622,1.005 -12.301,0.13L-6.724,-15.146C-6.355,-16.154 -5.368,-16.811 -4.392,-16.697C-3.413,-16.583 -2.737,-15.731 -2.794,-14.689L-3.411,-3.186L-0.501,-0.963C0.225,-0.409 0.432,0.634 0,1.554" style="fill:rgb(67,65,62);fill-rule:nonzero;"/>
            </g>
        </g>
        <g transform="matrix(7.40219,0,0,7.40219,474.45,252.411)">
            <g transform="matrix(1,0,0,1,118.684,57.2404)">
                <path d="M0,5.747C-0.902,5.758 -1.681,5.177 -1.869,4.263C-2.1,3.145 -1.362,1.952 -0.219,1.598L3.827,0.345C4.972,-0.011 6.092,0.61 6.322,1.733C6.552,2.854 5.808,4.049 4.661,4.403L0.616,5.649C0.408,5.713 0.201,5.745 0,5.747" style="fill:rgb(67,65,62);fill-rule:nonzero;"/>
            </g>
        </g>
        <g transform="matrix(7.40219,0,0,7.40219,474.45,252.411)">
            <g transform="matrix(1,0,0,1,55.3504,94.3419)">
                <path d="M14.1,-3.369C13.488,-2.21 12.896,-1.008 12.365,0.198C12.285,0.38 12.206,0.563 12.128,0.745L-23.498,0.802C-22.952,0.208 -22.611,-0.558 -22.552,-1.379C-22.503,-2.067 -22.659,-2.719 -22.983,-3.26L14.1,-3.369ZM0,-32.419C-0.725,-33.221 -1.997,-33.204 -2.845,-32.383L-28.115,-7.886L-27.364,-6.076L-25.484,-5.073L-0.225,-29.484C0.624,-30.301 0.725,-31.617 0,-32.419" style="fill:rgb(67,65,62);fill-rule:nonzero;"/>
            </g>
        </g>
        <g transform="matrix(7.40219,0,0,7.40219,474.45,252.411)">
            <g transform="matrix(1,0,0,1,162.288,100.4)">
                <path d="M-87.494,-5.324C-87.044,-6.227 -86.521,-7.208 -85.915,-8.273C-85.914,-8.274 -85.913,-8.275 -85.913,-8.277C-85.824,-8.434 -85.733,-8.592 -85.638,-8.75C-85.636,-8.753 -85.634,-8.756 -85.632,-8.76C-85.495,-8.992 -85.356,-9.222 -85.215,-9.45L-57.786,-9.531L-47.561,-18.997C-46.91,-19.603 -45.994,-19.788 -45.244,-19.468C-44.494,-19.148 -44.055,-18.383 -44.135,-17.534L-45.54,-2.502L-38.473,-8.974C-38.044,-9.369 -37.489,-9.592 -36.933,-9.593L27.265,-9.783L-6.681,-47.04C-7.236,-47.646 -7.325,-48.572 -6.909,-49.384C-6.493,-50.195 -5.65,-50.735 -4.777,-50.75L16.114,-51.091C16.999,-51.106 17.742,-50.587 17.993,-49.78C18.244,-48.973 17.955,-48.033 17.259,-47.403L7.379,-38.414L34.032,-9.174C34.592,-8.564 34.673,-7.64 34.242,-6.839C33.811,-6.039 32.951,-5.515 32.065,-5.513L-36.465,-5.405L-46.757,3.991C-47.19,4.388 -47.741,4.598 -48.28,4.597C-48.548,4.597 -48.812,4.544 -49.059,4.438C-49.803,4.116 -50.239,3.357 -50.161,2.519L-48.777,-12.453L-55.788,-5.984C-56.209,-5.593 -56.756,-5.373 -57.304,-5.372L-87.494,-5.324ZM0,-46.508L4.631,-41.428L10.368,-46.663L0,-46.508Z" style="fill:rgb(67,65,62);fill-rule:nonzero;"/>
            </g>
        </g>
        <g transform="matrix(7.40219,0,0,7.40219,474.45,252.411)">
            <g transform="matrix(1,0,0,1,82.9486,67.4021)">
                <path d="M0,8.988C0.464,4.962 0.037,3.135 0.029,3.102C-0.277,2.025 0.37,0.829 1.464,0.416C2.56,0 3.701,0.554 4.003,1.633C4.037,1.756 4.368,3.009 4.322,5.603L0,8.988Z" style="fill:rgb(67,65,62);fill-rule:nonzero;"/>
            </g>
        </g>
        <g transform="matrix(7.40219,0,0,7.40219,474.45,252.411)">
            <g transform="matrix(-0.859313,-0.51145,-0.51145,0.859313,76.5881,88.1421)">
                <path d="M-3.459,-0.372C-2.913,-2.952 -2.328,-5.197 -1.739,-7.141L-3.745,-13.616C-4.86,-10.832 -6.028,-7.201 -7.063,-2.532C-5.743,-1.741 -4.515,-1.005 -3.459,-0.372Z" style="fill:rgb(67,65,62);fill-rule:nonzero;"/>
            </g>
        </g>
        <g transform="matrix(7.40219,0,0,7.40219,474.45,252.411)">
            <g transform="matrix(1,0,0,1,113.266,103.249)">
                <path d="M0,-38.527C-0.129,-38.492 -6.319,-36.747 -13.941,-32.866C-15.346,-32.15 -16.803,-31.363 -18.277,-30.498C-21.014,-28.893 -23.813,-27.032 -26.495,-24.892L-31.531,-20.354C-33.89,-17.941 -36.027,-15.26 -37.774,-12.295C-37.875,-12.127 -37.972,-11.959 -38.067,-11.791C-38.825,-10.46 -39.456,-9.256 -39.977,-8.171C-42.561,-2.821 -42.568,-0.327 -42.34,0.301C-42.34,0.301 -41.501,2.34 -38.301,0.492C-35.391,-1.184 -34.463,-2.189 -34.314,-2.361C-36.729,1.399 -39.508,3.883 -42.015,4.326C-42.285,4.374 -42.55,4.398 -42.806,4.397C-44.019,4.394 -45.05,3.855 -45.705,2.86C-47.304,0.425 -46.202,-3.881 -44.314,-8.165C-43.698,-9.563 -42.998,-10.957 -42.281,-12.282C-42.039,-12.735 -41.793,-13.178 -41.547,-13.611C-38.87,-18.333 -35.08,-22.794 -30.317,-26.859L-25.995,-30.244C-23.159,-32.29 -20.054,-34.208 -16.707,-35.983C-8.099,-40.545 -0.999,-42.525 -0.702,-42.608C0.443,-42.925 1.529,-42.264 1.724,-41.137C1.916,-40.008 1.144,-38.842 0,-38.527" style="fill:rgb(67,65,62);fill-rule:nonzero;"/>
            </g>
        </g>
        <g transform="matrix(7.40219,0,0,7.40219,474.45,252.411)">
            <g transform="matrix(1,0,0,1,81.9631,105.589)">
                <path d="M-0.585,-9.173C-1.322,-7.554 -2.134,-6.062 -2.99,-4.729L-2.993,-4.726C-2.996,-4.72 -3.002,-4.715 -3.011,-4.701C-3.161,-4.529 -4.088,-3.524 -6.998,-1.848C-10.198,0 -11.037,-2.039 -11.037,-2.039C-10.936,-2.055 -10.823,-2.093 -10.691,-2.153L-10.675,-2.161C-9.511,-2.693 -7.156,-4.9 -4.966,-9.166L-0.585,-9.173Z" style="fill:rgb(67,65,62);fill-rule:nonzero;"/>
            </g>
        </g>
        <g transform="matrix(7.40219,0,0,7.40219,474.45,252.411)">
            <g transform="matrix(1,0,0,1,30.1742,92.8969)">
                <path d="M0,0.073C0.016,-0.155 -0.093,-0.369 -0.289,-0.473L-4.281,-2.606L-6.057,-6.891C-6.226,-7.304 -6.879,-7.301 -7.105,-6.886L-9.467,-2.59L-13.728,-0.439C-13.936,-0.335 -14.074,-0.121 -14.089,0.106C-14.105,0.338 -13.995,0.546 -13.801,0.649L-9.833,2.777L-8.062,7.042C-7.98,7.245 -7.783,7.377 -7.563,7.377C-7.343,7.377 -7.128,7.245 -7.018,7.042L-4.655,2.769L-0.366,0.621C-0.156,0.516 -0.016,0.306 0,0.073" style="fill:rgb(67,65,62);fill-rule:nonzero;"/>
            </g>
        </g>
        <g transform="matrix(7.40219,0,0,7.40219,474.45,252.411)">
            <g transform="matrix(1,0,0,1,63.7342,49.8901)">
                <path d="M0,10.482L-33.665,10.929C-34.19,10.936 -34.678,10.725 -35.023,10.344L-40.332,4.459L-46.432,10.497C-46.826,10.887 -47.34,11.11 -47.86,11.117L-54.906,11.21C-55.985,11.225 -56.799,10.32 -56.727,9.19C-56.654,8.058 -55.721,7.128 -54.642,7.112L-48.401,7.021L-41.431,0.099C-40.604,-0.721 -39.351,-0.743 -38.634,0.052L-32.554,6.788L0.329,6.306C1.45,6.289 2.285,7.212 2.194,8.367C2.102,9.52 1.12,10.467 0,10.482" style="fill:rgb(67,65,62);fill-rule:nonzero;"/>
            </g>
        </g>
        <g transform="matrix(7.40219,0,0,7.40219,474.45,252.411)">
            <g transform="matrix(1,0,0,1,110.538,49.7886)">
                <path d="M0,-2.492L5.638,3.714C6.412,4.565 7.915,4.095 8.263,2.892L10.561,-5.042C10.874,-6.124 10.026,-7.057 8.943,-6.822L1.006,-5.094C-0.198,-4.832 -0.773,-3.343 0,-2.492" style="fill:rgb(163,161,161);fill-rule:nonzero;"/>
            </g>
        </g>
        <g transform="matrix(7.40219,0,0,7.40219,474.45,252.411)">
            <g transform="matrix(1,0,0,1,105.314,52.484)">
                <path d="M0,8.529C-0.355,8.534 -0.699,8.401 -0.945,8.129L-5.993,2.565C-6.486,2.022 -6.407,1.128 -5.817,0.569C-5.228,0.008 -4.349,-0.005 -3.856,0.538L1.199,6.108C1.693,6.652 1.612,7.545 1.019,8.103C0.724,8.382 0.355,8.524 0,8.529" style="fill:rgb(163,161,161);fill-rule:nonzero;"/>
            </g>
        </g>
        <g transform="matrix(7.40219,0,0,7.40219,474.45,252.411)">
            <g transform="matrix(1,0,0,1,125.466,49.1797)">
                <path d="M0,7.315C-0.36,7.32 -0.708,7.186 -0.956,6.913C-1.454,6.366 -1.369,5.465 -0.766,4.901L3.854,0.577C4.46,0.01 5.357,-0.005 5.856,0.544C6.356,1.093 6.269,1.998 5.662,2.564L1.036,6.884C0.735,7.166 0.361,7.31 0,7.315" style="fill:rgb(163,161,161);fill-rule:nonzero;"/>
            </g>
        </g>
        <g transform="matrix(7.40219,0,0,7.40219,474.45,252.411)">
            <g transform="matrix(1,0,0,1,103.343,26.667)">
                <path d="M0,18.764C-0.356,18.77 -0.7,18.638 -0.947,18.366C-1.442,17.822 -1.362,16.923 -0.769,16.358L15.772,0.591C16.375,0.016 17.271,-0.006 17.77,0.543L30.415,14.43C30.916,14.981 30.828,15.89 30.219,16.461C29.61,17.031 28.711,17.048 28.211,16.498L16.488,3.619L1.022,18.33C0.725,18.612 0.356,18.758 0,18.764" style="fill:rgb(163,161,161);fill-rule:nonzero;"/>
            </g>
        </g>
    </g>
</svg>
