<?xml version="1.0" encoding="UTF-8"?>
<svg id="Layer_2" xmlns="http://www.w3.org/2000/svg" viewBox="0 0 379.81 117">
  <defs>
    <style>
      .cls-1 {
        fill: #541a30;
      }

      .cls-2 {
        fill: #a04366;
      }

      .cls-3, .cls-4, .cls-5, .cls-6, .cls-7 {
        fill: #43413e;
      }

      .cls-8 {
        fill: #f5b7cc;
      }

      .cls-9, .cls-10, .cls-11 {
        fill: #f8dde8;
      }

      .cls-9, .cls-5, .cls-6 {
        opacity: .6;
      }

      .cls-10, .cls-12, .cls-7 {
        opacity: .8;
      }

      .cls-4 {
        opacity: .4;
      }

      .cls-4, .cls-5 {
        stroke: #43413e;
      }

      .cls-4, .cls-5, .cls-6 {
        stroke-linecap: round;
        stroke-miterlimit: 10;
      }

      .cls-13 {
        fill: #231916;
      }

      .cls-14 {
        fill: #f3abca;
      }

      .cls-12 {
        fill: #645d58;
      }

      .cls-6 {
        stroke: #fff;
        stroke-width: .25px;
      }

      .cls-15 {
        fill: #ed7ca6;
      }
    </style>
  </defs>
  <g id="_レイヤー_1" data-name="レイヤー_1">
    <g>
      <g>
        <line class="cls-5" x1="26.13" y1="21.93" x2="33.13" y2="29.2"/>
        <line class="cls-6" x1="72.16" y1="69.74" x2="78.21" y2="76.03"/>
        <line class="cls-5" x1="78.7" y1="27.49" x2="72.28" y2="33.19"/>
        <line class="cls-5" x1="34.53" y1="66.74" x2="28.35" y2="72.23"/>
        <line class="cls-4" x1="18.57" y1="32.74" x2="23.2" y2="35.06"/>
        <line class="cls-4" x1="81.51" y1="64.25" x2="85.62" y2="66.31"/>
        <line class="cls-4" x1="67.33" y1="18.51" x2="65.3" y2="23.06"/>
        <line class="cls-4" x1="41.83" y1="75.74" x2="39.88" y2="80.13"/>
        <line class="cls-4" x1="38.66" y1="14.99" x2="40.54" y2="19.52"/>
        <line class="cls-4" x1="64.74" y1="77.74" x2="66.66" y2="82.36"/>
        <line class="cls-4" x1="86.41" y1="40.25" x2="81.51" y2="41.7"/>
        <line class="cls-4" x1="25.15" y1="58.46" x2="19.66" y2="60.09"/>
        <polygon class="cls-7" points="50.82 12.17 54.66 12.71 52.89 25.57 50.82 12.17"/>
        <polygon class="cls-7" points="15.82 44.96 16.18 49.3 30.21 47.84 15.82 44.96"/>
        <polygon class="cls-7" points="89.01 51.94 88.73 55.21 75.49 51.91 89.01 51.94"/>
        <polygon class="cls-7" points="51.87 83.76 55 84.11 54.03 68.98 51.87 83.76"/>
      </g>
      <g>
        <g>
          <path class="cls-13" d="M96.42,46.83c-3.54-19.93-19.73-37.5-39.56-42.48C32.81-1.68,5.86,11.26.84,39.52c-6.38,35.95,24.7,66.5,59.7,60.38,26.62-4.65,40.02-29.73,35.88-53.07ZM60.11,88.6c-27.14,3.36-50.93-20.39-47.28-48.16C15.86,17.47,37.03,5.84,57.09,10.35c17.03,3.83,31,18.91,33.69,36.04,3.08,19.6-8.86,39.51-30.67,42.21Z"/>
          <path class="cls-3" d="M98.59,43.94C95.06,24.01,78.86,6.44,59.04,1.46,40.99-3.08,21.28,3.09,10.47,18.41c-.02.02-.05.05-.06.08-3.57,5.07-6.16,11.14-7.4,18.14-6.38,35.94,24.7,66.49,59.69,60.38,11.98-2.09,21.28-8.33,27.51-16.67.05-.05.08-.09.1-.14,7.55-10.18,10.54-23.49,8.27-36.26ZM85.97,72.27c-5.33,7.08-13.42,12.16-23.69,13.43-27.13,3.36-50.93-20.39-47.27-48.15.8-6.14,2.91-11.47,5.94-15.89.11-.16.23-.33.36-.49C29.69,9.37,44.77,4.2,59.27,7.46c17.03,3.83,31,18.91,33.69,36.04,1.63,10.37-.95,20.83-6.98,28.77Z"/>
        </g>
        <g>
          <path class="cls-12" d="M91.09,25.09l-.8,5.18-.45,2.91-.93,6.05c-2.5-7.22-6.98-13.79-12.72-18.92l2.41-2.69.83-.94,2.41-2.7c3.55,3.29,6.68,7.04,9.25,11.11Z"/>
          <path class="cls-12" d="M60.16,85.78l-2.33,2.91-7.12,8.89-2.32,2.89c-1.38-.07-2.74-.21-4.09-.4-2-.29-3.97-.69-5.9-1.2l1.17-3.19,3.2-8.7,1.18-3.21c3.42,1.14,7.01,1.85,10.72,2.06,1.8.1,3.64.09,5.49-.05Z"/>
        </g>
        <g>
          <path class="cls-15" d="M52.51,36.64l-29.54,80.36,52.6-72.19L85.23,0l-32.72,36.64ZM70.15,43.23c-1.19,2.53-4.72,3.74-7.82,2.6-3.04-1.11-4.3-4.01-2.9-6.39,1.34-2.27,4.64-3.27,7.49-2.31,2.88,1,4.36,3.68,3.23,6.09Z"/>
          <path class="cls-11" d="M70.15,43.23c-1.19,2.53-4.72,3.74-7.82,2.6-.71-.26-1.32-.62-1.82-1.04l5.23-.41,4.63-3.91c.26.89.21,1.85-.22,2.76Z"/>
          <polygon class="cls-8" points="85.22 0 85.67 4.28 78.33 51.79 75.57 44.81 85.22 0"/>
          <polygon class="cls-2" points="75.57 44.81 78.33 51.79 30.09 112.05 22.97 117 75.57 44.81"/>
          <path class="cls-2" d="M70.37,40.46l-4.63,3.91-2.88-7.36h.02c1.28-.34,2.71-.32,4.04.13,1.79.62,3.03,1.88,3.45,3.33Z"/>
          <path class="cls-8" d="M65.73,44.37l-5.23.41c-1.66-1.4-2.14-3.52-1.08-5.34.7-1.19,1.95-2.03,3.38-2.42h.05s2.88,7.35,2.88,7.35Z"/>
          <polygon class="cls-11" points="85.22 0 56.3 37.01 35.85 81.95 52.51 36.64 85.22 0"/>
          <polygon class="cls-14" points="85.22 0 54.1 36.77 41.82 68.83 56.3 37.01 85.22 0"/>
          <polygon class="cls-1" points="78.33 51.79 77.71 50.22 22.97 117 30.09 112.05 78.33 51.79"/>
          <polygon class="cls-11" points="77.71 50.22 84.2 13.83 78.33 51.79 77.71 50.22"/>
          <polygon class="cls-9" points="80.95 8.22 60.54 35.05 70.37 25.9 80.95 8.22"/>
          <polygon class="cls-10" points="58.63 67.97 26.06 108.58 22.97 117 58.63 67.97"/>
        </g>
      </g>
    </g>
    <g>
      <path class="cls-3" d="M145.77,87.61c-6.33,0-11.06-1.71-14.16-5.13-3.11-3.42-4.21-8.1-3.3-14.04l7.02-44.16h12.84l-7.02,44.07c-.4,2.63-.04,4.64,1.07,6.03,1.11,1.4,2.89,2.1,5.35,2.1s4.39-.7,5.99-2.1c1.6-1.4,2.6-3.41,3-6.03l7.02-44.07h12.84l-7.02,44.16c-.63,3.94-2,7.35-4.11,10.23-2.11,2.88-4.84,5.09-8.17,6.63-3.34,1.54-7.12,2.31-11.34,2.31Z"/>
      <path class="cls-3" d="M177.26,86.76l7.45-47.07h12.41l-1.45,8.99h.34c1.03-3.08,2.77-5.49,5.22-7.23,2.45-1.74,5.36-2.61,8.73-2.61,4.56,0,7.97,1.6,10.23,4.79,2.25,3.2,2.95,7.45,2.1,12.75l-4.79,30.38h-12.84l4.62-29.1c.4-2.45.06-4.35-1.03-5.69-1.09-1.34-2.8-2.01-5.14-2.01s-4.15.67-5.61,2.01c-1.46,1.34-2.38,3.24-2.78,5.69l-4.62,29.1h-12.84Z"/>
      <path class="cls-3" d="M331.31,86.76l9.93-62.47h20.11c6.33,0,11.15,1.44,14.46,4.32,3.31,2.88,4.56,6.78,3.77,11.68-.4,2.74-1.41,5.13-3.04,7.19-1.63,2.05-3.59,3.65-5.9,4.79s-4.72,1.71-7.23,1.71l-.09.26c2.8-.06,5.26.46,7.4,1.54,2.14,1.09,3.75,2.71,4.83,4.88,1.08,2.17,1.37,4.85.86,8.04-.57,3.65-1.94,6.83-4.11,9.54-2.17,2.71-4.96,4.81-8.39,6.29-3.42,1.48-7.33,2.23-11.72,2.23h-20.88ZM345.34,76.4h7.96c2.8,0,5.12-.74,6.98-2.23,1.85-1.48,2.98-3.54,3.38-6.16.4-2.62-.09-4.69-1.45-6.21-1.37-1.51-3.45-2.27-6.25-2.27h-7.96l-2.65,16.86ZM349.62,49.44h7.53c2.51,0,4.58-.67,6.2-2.01,1.63-1.34,2.64-3.15,3.04-5.43.34-2.34-.1-4.15-1.33-5.43-1.23-1.28-3.1-1.93-5.61-1.93h-7.53l-2.31,14.81Z"/>
      <g>
        <path class="cls-3" d="M258.99,32.24c2.34,0,4.31-.6,5.91-1.8,1.6-1.2,2.54-2.82,2.82-4.88.34-2.05-.09-3.68-1.28-4.88-1.2-1.2-2.97-1.8-5.31-1.8s-4.31.6-5.91,1.8-2.57,2.82-2.91,4.88c-.29,2.05.17,3.68,1.37,4.88,1.2,1.2,2.97,1.8,5.31,1.8Z"/>
        <path class="cls-3" d="M327.28,33.74c-1.31-2.99-3.44-5.31-6.41-6.97-2.97-1.66-6.62-2.49-10.95-2.49h-20.29l-7.09,44.64h12.8l5.16-32.66h7.45c2.63,0,4.62.74,5.99,2.22,1.37,1.49,1.88,3.42,1.54,5.82l-3.59,22.34c-.4,2.45-1.52,4.42-3.34,5.91-1.83,1.49-4.05,2.22-6.68,2.22h-7.31s0,0,0,0h-35.34l5.43-35.08h-26.1l-1.8,11.55h14.12l-3.63,23.53h-36.41l-2.01,11.99h70.89s0,0,0,0h20.29c4.33,0,8.23-.84,11.72-2.53,3.48-1.68,6.36-4.03,8.64-7.06,2.29-3.02,3.74-6.53,4.36-10.52l3.6-22.34c.62-4.04.28-7.57-1.04-10.57Z"/>
      </g>
    </g>
  </g>
</svg>