<?xml version="1.0" encoding="UTF-8" standalone="no"?>
<!DOCTYPE svg PUBLIC "-//W3C//DTD SVG 1.1//EN" "http://www.w3.org/Graphics/SVG/1.1/DTD/svg11.dtd">
<svg width="100%" height="100%" viewBox="0 0 600 189" version="1.1" xmlns="http://www.w3.org/2000/svg" xmlns:xlink="http://www.w3.org/1999/xlink" xml:space="preserve" xmlns:serif="http://www.serif.com/" style="fill-rule:evenodd;clip-rule:evenodd;stroke-linejoin:round;stroke-miterlimit:2;">
    <g transform="matrix(1,0,0,1,-1800,-855.848)">
        <g transform="matrix(1,0,0,1,1200,-159.152)">
            <path d="M760,1101.37L760,1160L800,1160C805.502,1186.71 830.23,1199.36 840,1200L620,1200L600,1160L720,1160L720,1108.67C724.948,1110.6 736.884,1113.3 754.056,1104.53C756.071,1103.5 758.056,1102.44 760,1101.37ZM714.07,1100L660,1100L640,1060L730.837,1060C714.536,1077.93 713.473,1093.15 714.07,1100Z" style="fill:rgb(245,245,245);"/>
        </g>
        <g transform="matrix(0.967944,0,0,0.967944,1222.74,-121.086)">
            <path d="M720.88,1099.47C720.88,1099.47 719.617,1085.84 742.673,1074.88C770.736,1061.54 794.732,1069.21 794.732,1069.21C794.732,1069.21 775.66,1084.55 752.713,1096.26C732.674,1106.49 720.88,1099.47 720.88,1099.47Z" style="fill:rgb(123,123,123);"/>
        </g>
        <path d="M1922.39,925.401C1924.68,919.023 1929.02,911.323 1937.06,902.981C1958.83,880.385 1988,875.851 1988,875.851C1988,875.851 1986.31,889.525 1977.98,905.781C1967.94,905.411 1954.04,906.788 1939.04,913.916C1931.33,917.576 1926.03,921.566 1922.39,925.401Z" style="fill:rgb(175,174,173);"/>
        <g transform="matrix(1,0,0,1,1130,-159.152)">
            <path d="M961.191,1060.54C960.198,1060.18 959.15,1060 958.094,1060L900,1060L900,1120L940,1120L940,1100L972.415,1100C972.415,1100 970.025,1079.54 968.801,1069.07C968.369,1065.38 965.888,1062.24 962.391,1060.98C961.96,1060.82 961.552,1060.67 961.191,1060.54ZM988.064,1100L1020,1100C1020,1100 1019.36,1185.93 950,1200C997.273,1217.88 1059.3,1160.06 1060.01,1100C1060.01,1100 1060.12,1074.83 1060,1060L1014.87,1060C1010.94,1060 1007.35,1062.2 1005.56,1065.7C999.925,1076.75 988.064,1100 988.064,1100Z" style="fill:rgb(245,245,245);"/>
        </g>
        <g transform="matrix(1,0,0,1,490,-159.149)">
            <path d="M1621.43,1090.99L1660.2,1015L1580,1042.23L1617,1054L1621.43,1090.99Z" style="fill:rgb(175,174,173);"/>
        </g>
        <g transform="matrix(1,0,0,1,1130,-159.152)">
            <path d="M1270,1060C1270,1060 1270.42,1130.67 1210,1130C1212.57,1118.6 1215.87,1108.61 1219.83,1100C1231.44,1074.73 1248.73,1061.46 1270,1060Z" style="fill:rgb(175,174,173);"/>
        </g>
        <g transform="matrix(1,0,0,1,490,-159.149)">
            <path d="M1851.08,1100L1750,1100L1730,1060L1883.25,1060C1870.93,1067.24 1860.5,1079.38 1852.56,1096.66C1852.06,1097.75 1851.56,1098.86 1851.08,1100Z" style="fill:rgb(245,245,245);"/>
        </g>
        <g transform="matrix(1,0,0,1,1130,-159.152)">
            <path d="M1150,1110L1190,1110C1190,1110 1186.9,1203.83 1125,1203.3C1125,1203.3 1147.13,1183.33 1150,1110Z" style="fill:rgb(245,245,245);"/>
        </g>
    </g>
</svg>
